<svg id="visual" viewBox="0 0 900 600" width="900" height="600" xmlns="http://www.w3.org/2000/svg" xmlns:xlink="http://www.w3.org/1999/xlink" version="1.1"><path d="M0 366L21.5 347C43 328 86 290 128.8 271.5C171.7 253 214.3 254 257.2 270C300 286 343 317 385.8 332.5C428.7 348 471.3 348 514.2 333.7C557 319.3 600 290.7 642.8 278.3C685.7 266 728.3 270 771.2 297.7C814 325.3 857 376.7 878.5 402.3L900 428L900 601L878.5 601C857 601 814 601 771.2 601C728.3 601 685.7 601 642.8 601C600 601 557 601 514.2 601C471.3 601 428.7 601 385.8 601C343 601 300 601 257.2 601C214.3 601 171.7 601 128.8 601C86 601 43 601 21.5 601L0 601Z" fill="#4a4d51" stroke-linecap="round" stroke-linejoin="miter"></path></svg>